#N canvas 442 225 531 371 10;
#X obj 100 0 inlet;
#X obj 8 284 outlet;
#X obj 151 193 list trim;
#X obj 312 161 t b l;
#X obj 309 192 list prepend set;
#X obj 309 224 list trim;
#X obj 153 62 t b b;
#X obj 313 79 route \$2;
#X obj 151 158 list prepend \$2;
#X obj 152 229 s presetGetAll-\$1;
#X obj 313 35 r presetSetParam-\$1;
#X obj 151 33 r presetTrigger-\$1;
#X floatatom 5 17 10 0 0 0 - - -, f 10;
#X obj 4 74 t a a;
#X obj 310 257 t a;
#X obj 310 119 float;
#X obj 150 120 float;
#X obj 100 25 change;
#X obj 144 0 r /\$1/\$2;
#X obj 20 237 send /\$1/\$2;
#X connect 2 0 9 0;
#X connect 3 1 4 0;
#X connect 4 0 5 0;
#X connect 5 0 14 0;
#X connect 6 0 16 0;
#X connect 6 1 14 0;
#X connect 7 0 15 0;
#X connect 8 0 2 0;
#X connect 10 0 7 0;
#X connect 11 0 6 0;
#X connect 12 0 13 0;
#X connect 13 0 1 0;
#X connect 13 0 19 0;
#X connect 13 1 16 1;
#X connect 14 0 12 0;
#X connect 15 0 3 0;
#X connect 16 0 8 0;
#X connect 17 0 12 0;
#X connect 18 0 17 0;
#X coords 0 0 1 1 85 40 1 0 0;
