#N canvas 339 340 450 300 10;
#X floatatom 93 34 6 0 0 0 R - -, f 6;
#X msg 110 92 recall \$1;
#X floatatom 142 34 4 0 0 0 I - -, f 4;
#X msg 175 91 index \$1;
#X obj 170 34 bng 15 250 50 0 empty empty S 17 7 0 10 -262144 -1 -1
;
#X floatatom 30 34 8 0 0 0 V - -, f 8;
#X msg 48 91 value \$1;
#X obj 23 221 outlet;
#X obj 176 221 outlet;
#X obj 15 120 inlet;
#X obj 297 91 inlet;
#X obj 33 175 sfloat \$1 \$2;
#X obj 24 4 route value recall index store;
#X msg 236 91 store 1;
#X connect 0 0 1 0;
#X connect 1 0 11 1;
#X connect 2 0 3 0;
#X connect 3 0 11 1;
#X connect 4 0 13 0;
#X connect 5 0 6 0;
#X connect 6 0 11 1;
#X connect 9 0 11 0;
#X connect 10 0 11 1;
#X connect 11 0 7 0;
#X connect 11 1 8 0;
#X connect 11 1 12 0;
#X connect 12 0 5 0;
#X connect 12 1 0 0;
#X connect 12 2 2 0;
#X connect 12 3 4 0;
#X connect 13 0 11 1;
#X coords 0 -1 1 1 175 30 1 20 20;
