#N canvas 795 98 450 300 10;
#X obj 3 258 storage \$1;
#X msg 225 152 write;
#X msg 239 129 read;
#X msg 118 127 writeagain;
#X msg 125 159 readagain;
#X floatatom 15 42 10 0 0 0 R - -, f 10;
#X msg 12 198 recall \$1;
#X floatatom 16 57 5 0 0 0 I - -, f 5;
#X obj 54 57 bng 15 250 50 0 empty empty S 17 7 0 10 -262144 -1 -1
;
#X msg 52 147 store;
#X msg 23 173 index \$1;
#X obj 225 233 t a;
#X obj 11 3 route recall index store;
#X obj 98 42 bng 15 250 50 0 empty empty w_again 17 7 0 10 -262144
-1 -1;
#X obj 165 57 bng 15 250 50 0 empty empty write 17 7 0 10 -262144 -1
-1;
#X obj 98 57 bng 15 250 50 0 empty empty r_again 17 7 0 10 -262144
-1 -1;
#X obj 165 42 bng 15 250 50 0 empty empty read 17 7 0 10 -262144 -1
-1;
#X connect 0 0 12 0;
#X connect 1 0 11 0;
#X connect 2 0 11 0;
#X connect 3 0 11 0;
#X connect 4 0 11 0;
#X connect 5 0 6 0;
#X connect 6 0 11 0;
#X connect 7 0 10 0;
#X connect 8 0 9 0;
#X connect 9 0 11 0;
#X connect 10 0 11 0;
#X connect 11 0 0 0;
#X connect 12 0 5 0;
#X connect 12 1 7 0;
#X connect 12 2 8 0;
#X connect 13 0 3 0;
#X connect 14 0 1 0;
#X connect 15 0 4 0;
#X connect 16 0 2 0;
#X coords 0 0 1 1 230 50 1 0 25;
