#N canvas 387 121 770 596 10;
#X obj 125 237 r \$1/\$2/index;
#X obj 33 68 inlet;
#X obj 330 64 inlet;
#X obj 35 496 outlet;
#X floatatom 97 69 5 0 0 0 - - -, f 5;
#X obj 349 293 r \$1/recall;
#X obj 33 108 t a;
#X obj 473 158 r \$1/index;
#X obj 457 191 send \$1/\$2/index;
#N canvas 0 22 489 355 interpolate 0;
#X obj 48 261 expr $f3*(1-$f1)+$f2*$f1;
#X obj 164 125 makefilename /preset%d/\$2;
#X obj 151 20 int;
#X obj 325 97 makefilename /preset%d/\$2;
#X obj 165 94 + 1;
#X obj 163 187 text get \$1 1;
#X obj 325 154 text get \$1 1;
#X obj 164 155 text search \$1 0;
#X obj 325 124 text search \$1 0;
#X obj 46 31 t f f;
#X obj 46 123 -;
#X obj 151 47 t f f f f;
#X obj 46 3 inlet;
#X obj 47 288 outlet;
#X obj 259 40 outlet;
#X connect 0 0 13 0;
#X connect 1 0 7 0;
#X connect 2 0 11 0;
#X connect 3 0 8 0;
#X connect 4 0 1 0;
#X connect 5 0 0 1;
#X connect 6 0 0 2;
#X connect 7 0 5 0;
#X connect 8 0 6 0;
#X connect 9 0 10 0;
#X connect 9 1 2 0;
#X connect 10 0 0 0;
#X connect 11 0 10 1;
#X connect 11 1 4 0;
#X connect 11 2 3 0;
#X connect 11 3 14 0;
#X connect 12 0 9 0;
#X restore 42 167 pd interpolate;
#X obj 33 206 change;
#X obj 33 233 t a a a;
#X obj 133 496 outlet;
#X obj 339 365 r \$1/\$2/index;
#X msg 337 439 index set \$1;
#X msg 133 436 recall set \$1;
#X obj 123 199 s \$1/\$2/index;
#X obj 141 67 r \$1/\$2;
#X floatatom 141 101 5 0 0 0 - - -, f 5;
#X obj 53 300 send \$1/\$2;
#X obj 441 363 r \$1/\$2;
#X obj 440 433 list prepend value set;
#X obj 439 457 list trim;
#X obj 502 132 send \$1/\$2/value;
#X obj 207 67 r \$1/\$2/value;
#X floatatom 208 102 5 0 0 0 - - -, f 5;
#X obj 331 97 route float recall store index value;
#X obj 245 368 r \$1/\$2/store;
#N canvas 46 413 450 300 storeMe 0;
#X obj 160 70 makefilename /preset%d/\$2;
#X obj 208 140 text search \$1 0;
#X obj 115 256 text set \$1 1;
#X obj 208 166 sel -1;
#X msg 139 193 1e+06;
#X obj 52 106 list;
#X obj 52 79 bng 15 250 50 0 empty empty empty 17 7 0 10 -262144 -1
-1;
#X obj 114 138 list prepend;
#X obj 181 111 t a a;
#X obj 78 77 inlet;
#X obj 160 40 inlet;
#X obj 56 23 r \$1/\$2/store;
#N canvas 0 22 450 300 oneSmallBang 0;
#X obj 34 20 inlet;
#X obj 39 188 outlet;
#X msg 37 105 store bang;
#X obj 37 132 spigot;
#X obj 38 78 t b 1 b;
#X msg 114 133 0;
#X obj 112 106 del 3;
#X connect 0 0 4 0;
#X connect 2 0 3 0;
#X connect 3 0 1 0;
#X connect 4 0 2 0;
#X connect 4 1 3 1;
#X connect 4 2 6 0;
#X connect 5 0 3 1;
#X connect 6 0 5 0;
#X restore 30 50 pd oneSmallBang;
#X connect 0 0 8 0;
#X connect 1 0 3 0;
#X connect 3 0 4 0;
#X connect 3 1 2 1;
#X connect 4 0 2 1;
#X connect 5 0 7 0;
#X connect 6 0 5 0;
#X connect 7 0 2 0;
#X connect 8 0 7 1;
#X connect 8 1 1 0;
#X connect 9 0 5 1;
#X connect 10 0 0 0;
#X connect 11 0 12 0;
#X connect 12 0 6 0;
#X restore 72 262 pd storeMe;
#X obj 434 225 r \$1/store;
#X obj 418 258 send \$1/\$2/store;
#X obj 134 364 r \$1/\$2/recall;
#X obj 333 326 send \$1/\$2/recall;
#X obj 42 143 r \$1/\$2/recall;
#X connect 0 0 28 1;
#X connect 1 0 6 0;
#X connect 2 0 26 0;
#X connect 4 0 6 0;
#X connect 5 0 32 0;
#X connect 6 0 10 0;
#X connect 7 0 8 0;
#X connect 9 0 10 0;
#X connect 9 1 16 0;
#X connect 10 0 11 0;
#X connect 11 0 3 0;
#X connect 11 1 19 0;
#X connect 11 2 28 0;
#X connect 13 0 14 0;
#X connect 14 0 12 0;
#X connect 15 0 12 0;
#X connect 17 0 6 0;
#X connect 17 0 18 0;
#X connect 20 0 21 0;
#X connect 21 0 22 0;
#X connect 22 0 12 0;
#X connect 24 0 6 0;
#X connect 24 0 25 0;
#X connect 26 0 32 0;
#X connect 26 1 32 0;
#X connect 26 2 30 0;
#X connect 26 3 8 0;
#X connect 26 4 23 0;
#X connect 29 0 30 0;
#X connect 31 0 15 0;
#X connect 33 0 9 0;
