#N canvas 918 56 416 253 10;
#X obj 54 77 inlet;
#X obj 190 239 outlet;
#X obj 30 178 list trim;
#X obj 189 104 list;
#X obj 191 146 t b l;
#X obj 188 177 list prepend set;
#X obj 188 209 list trim;
#X obj 32 47 t b b;
#X obj 29 105 list;
#X obj 192 64 route \$2;
#X obj 30 143 list prepend \$2;
#X obj 31 214 s presetGetAll-\$1;
#X obj 192 20 r presetSetParam-\$1;
#X obj 30 18 r presetTrigger-\$1;
#X connect 0 0 8 1;
#X connect 2 0 11 0;
#X connect 3 0 4 0;
#X connect 4 1 5 0;
#X connect 5 0 6 0;
#X connect 6 0 1 0;
#X connect 7 0 8 0;
#X connect 7 1 1 0;
#X connect 8 0 10 0;
#X connect 9 0 3 0;
#X connect 10 0 2 0;
#X connect 12 0 9 0;
#X connect 13 0 7 0;
