#N canvas 508 163 866 607 10;
#X obj 33 338 send \$1/recall;
#X floatatom 34 215 5 0 0 0 - - -, f 5;
#X obj 462 485 text define \$1;
#X obj 562 103 bng 15 250 50 0 empty empty empty 17 7 0 10 -262144
-1 -1;
#X obj 561 125 symbol \$1;
#X obj 158 222 bng 15 250 50 0 empty empty empty 17 7 0 10 -262144
-1 -1;
#X obj 84 311 send \$1/index;
#X floatatom 85 291 5 0 0 0 - - -, f 5;
#X obj 581 102 loadbang;
#X obj 156 244 send \$1/store;
#X obj 396 264 openpanel;
#X obj 442 239 savepanel;
#X obj 555 360 list;
#X obj 462 445 list trim;
#X obj 461 363 list;
#X obj 396 213 route read write;
#X msg 411 113 write;
#X msg 561 146 \$1.txt;
#X obj 576 395 list prepend write;
#X obj 460 398 list prepend read;
#X msg 416 135 read;
#X msg 418 153 writeagain;
#X msg 417 174 readagain;
#X obj 33 192 route recall index;
#X obj 611 297 route readagain writeagain;
#X obj 612 325 bng 15 250 50 0 empty empty empty 17 7 0 10 -262144
-1 -1;
#X obj 686 324 bng 15 250 50 0 empty empty empty 17 7 0 10 -262144
-1 -1;
#X obj 460 321 t b a;
#X obj 551 319 t b a;
#X obj 158 192 route store;
#X obj 29 76 inlet;
#X obj 209 566 outlet;
#X obj 221 316 r \$1/recall;
#X obj 232 369 r \$1/index;
#X obj 246 425 r \$1/store;
#X msg 231 394 index set \$1;
#X msg 222 342 recall set \$1;
#X obj 528 280 t a a;
#X obj 473 281 t a a;
#X obj 561 173 list prepend readpath;
#X obj 511 247 route readpath writepath;
#X obj 85 235 int;
#X obj 35 237 t f f;
#X obj 85 260 change;
#X floatatom 46 109 5 0 0 0 - - -, f 5;
#X msg 44 132 recall \$1;
#X floatatom 113 99 5 0 0 0 - - -, f 5;
#X obj 175 110 bng 15 250 50 0 empty empty empty 17 7 0 10 -262144
-1 -1;
#X msg 175 130 store;
#X msg 114 131 index \$1;
#N canvas 0 22 450 300 oneSmallBang 0;
#X obj 34 20 inlet;
#X obj 39 188 outlet;
#X msg 37 105 store bang;
#X obj 37 132 spigot;
#X obj 38 78 t b 1 b;
#X msg 114 133 0;
#X obj 112 106 del 1;
#X connect 0 0 4 0;
#X connect 2 0 3 0;
#X connect 3 0 1 0;
#X connect 4 0 2 0;
#X connect 4 1 3 1;
#X connect 4 2 6 0;
#X connect 5 0 3 1;
#X connect 6 0 5 0;
#X restore 245 454 pd oneSmallBang;
#X obj 573 200 list trim;
#X obj 578 484 print storage \$1;
#X connect 1 0 42 0;
#X connect 3 0 4 0;
#X connect 4 0 17 0;
#X connect 5 0 9 0;
#X connect 7 0 6 0;
#X connect 8 0 4 0;
#X connect 10 0 38 0;
#X connect 11 0 37 0;
#X connect 12 0 18 0;
#X connect 13 0 2 0;
#X connect 13 0 52 0;
#X connect 14 0 19 0;
#X connect 15 0 10 0;
#X connect 15 1 11 0;
#X connect 15 2 40 0;
#X connect 16 0 15 0;
#X connect 17 0 39 0;
#X connect 18 0 13 0;
#X connect 19 0 13 0;
#X connect 20 0 15 0;
#X connect 21 0 15 0;
#X connect 22 0 15 0;
#X connect 23 0 1 0;
#X connect 23 1 41 0;
#X connect 23 2 29 0;
#X connect 24 0 25 0;
#X connect 24 1 26 0;
#X connect 25 0 14 0;
#X connect 26 0 12 0;
#X connect 27 0 14 0;
#X connect 27 1 14 1;
#X connect 28 0 12 0;
#X connect 28 1 12 1;
#X connect 29 0 5 0;
#X connect 29 1 15 0;
#X connect 30 0 23 0;
#X connect 32 0 36 0;
#X connect 33 0 35 0;
#X connect 34 0 50 0;
#X connect 35 0 31 0;
#X connect 36 0 31 0;
#X connect 37 0 14 1;
#X connect 37 1 28 0;
#X connect 38 0 27 0;
#X connect 38 1 12 1;
#X connect 39 0 51 0;
#X connect 40 0 38 0;
#X connect 40 1 37 0;
#X connect 40 2 24 0;
#X connect 41 0 43 0;
#X connect 42 0 0 0;
#X connect 42 1 41 0;
#X connect 43 0 7 0;
#X connect 44 0 45 0;
#X connect 45 0 23 0;
#X connect 46 0 49 0;
#X connect 47 0 48 0;
#X connect 48 0 23 0;
#X connect 49 0 23 0;
#X connect 50 0 31 0;
#X connect 51 0 15 0;
#X coords 0 607 1 606 200 60 0;
