#N canvas 113 60 592 649 10;
#X obj 5 202 inlet;
#X obj 4 439 t b b;
#X msg 32 485 clear;
#X obj 149 558 textfile;
#X msg 149 439 write main-0.txt;
#X obj 50 438 until;
#X obj 325 501 list prepend add;
#X obj 325 530 list trim;
#X obj 131 106 inlet;
#X obj 324 350 list prepend set read;
#X obj 324 374 list trim;
#X obj 47 372 t b b b;
#X msg 94 438 rewind;
#X msg 324 422 read main-0.txt;
#X floatatom 323 269 5 0 0 0 - - -, f 5;
#X obj 147 373 list trim;
#X obj 147 347 list prepend set write;
#X obj 125 268 loadbang;
#X obj 324 318 makefilename \$1-%i.txt;
#X obj 5 232 route get recall save preset;
#X obj 11 25 bng 15 250 50 0 empty empty empty 17 7 0 10 -262144 -1
-1;
#X text 1 45 save;
#X obj 41 25 bng 15 250 50 0 empty empty empty 17 7 0 10 -262144 -1
-1;
#X text 1 67 recall;
#X obj 41 68 hradio 15 1 0 7 empty empty empty 0 -8 0 10 -262144 -1
-1 0;
#X floatatom 65 25 5 0 0 0 - - -, f 5;
#X obj 125 296 t b b;
#X msg 131 149 preset \$1;
#X msg 394 53 set \$1;
#X msg 170 296 0;
#X obj 9 114 t b b;
#X msg 49 146 get;
#X msg 9 146 save;
#X msg 81 150 recall;
#X obj 2 586 s presetTrigger-\$1;
#X obj 149 586 s presetSetParam-\$1;
#X obj 325 471 r presetGetAll-\$1;
#X obj 41 46 hradio 15 1 0 7 empty empty empty 0 -8 0 10 -262144 -1
-1 4;
#X text 31 25 R;
#X text 1 25 S;
#X text 293 564 Storage Abstraction gllmar 2015 from pattr.ru 2012
;
#X obj 324 291 t f f;
#X obj 393 292 t f;
#X obj 168 4 t b f f;
#X obj 237 3 t b f f;
#X obj 208 120 t f;
#X obj 60 198 t a;
#X connect 0 0 19 0;
#X connect 1 0 34 0;
#X connect 1 1 2 0;
#X connect 2 0 3 0;
#X connect 3 0 35 0;
#X connect 3 1 5 1;
#X connect 4 0 3 0;
#X connect 5 0 3 0;
#X connect 6 0 7 0;
#X connect 7 0 3 0;
#X connect 8 0 27 0;
#X connect 9 0 10 0;
#X connect 10 0 13 0;
#X connect 11 0 5 0;
#X connect 11 1 12 0;
#X connect 11 2 13 0;
#X connect 12 0 3 0;
#X connect 13 0 3 0;
#X connect 14 0 41 0;
#X connect 15 0 4 0;
#X connect 16 0 15 0;
#X connect 17 0 26 0;
#X connect 18 0 9 0;
#X connect 18 0 16 0;
#X connect 19 0 1 0;
#X connect 19 1 11 0;
#X connect 19 2 4 0;
#X connect 19 3 14 0;
#X connect 20 0 30 0;
#X connect 22 0 33 0;
#X connect 24 0 44 0;
#X connect 25 0 27 0;
#X connect 25 0 28 0;
#X connect 26 0 11 0;
#X connect 26 1 29 0;
#X connect 27 0 46 0;
#X connect 28 0 24 0;
#X connect 28 0 25 0;
#X connect 29 0 14 0;
#X connect 30 0 32 0;
#X connect 30 1 31 0;
#X connect 31 0 46 0;
#X connect 32 0 46 0;
#X connect 33 0 46 0;
#X connect 36 0 6 0;
#X connect 37 0 43 0;
#X connect 41 0 18 0;
#X connect 41 1 42 0;
#X connect 42 0 28 0;
#X connect 43 0 20 0;
#X connect 43 1 28 0;
#X connect 43 2 45 0;
#X connect 44 0 22 0;
#X connect 44 1 28 0;
#X connect 44 2 45 0;
#X connect 45 0 27 0;
#X connect 46 0 19 0;
#X coords 0 -1 1 1 150 90 1 0 0;
